<svg width="19" height="23" viewBox="0 0 19 23" fill="none" xmlns="http://www.w3.org/2000/svg">
<g clip-path="url(#clip0_201_6268)">
<path d="M18.3268 15.8113C17.5267 14.9517 16.0297 13.6584 16.0297 9.42211C16.0297 6.20451 13.7737 3.62877 10.7316 2.99685V2.13385C10.7316 1.40213 10.1386 0.808716 9.40734 0.808716C8.67603 0.808716 8.08303 1.40213 8.08303 2.13385V2.99685C5.04101 3.62877 2.78496 6.20451 2.78496 9.42211C2.78496 13.6584 1.28797 14.9517 0.487921 15.8113C0.239458 16.0784 0.129306 16.3977 0.131376 16.7104C0.135931 17.3895 0.668885 18.0355 1.46065 18.0355H17.354C18.1458 18.0355 18.6792 17.3895 18.6833 16.7104C18.6854 16.3977 18.5752 16.078 18.3268 15.8113ZM2.92783 16.0478C3.80656 14.8895 4.76729 12.9697 4.77184 9.44613C4.77184 9.43784 4.76936 9.43039 4.76936 9.42211C4.76936 6.86045 6.84568 4.78413 9.40734 4.78413C11.969 4.78413 14.0453 6.86045 14.0453 9.42211C14.0453 9.43039 14.0428 9.43784 14.0428 9.44613C14.0474 12.9702 15.0081 14.89 15.8868 16.0478H2.92783ZM9.40734 22.0109C10.87 22.0109 12.0564 20.8245 12.0564 19.3606H6.7583C6.7583 20.8245 7.94472 22.0109 9.40734 22.0109Z" fill="black"/>
</g>
<defs>
<clipPath id="clip0_201_6268">
<rect width="18.5519" height="21.2022" fill="white" transform="translate(0.131348 0.808716)"/>
</clipPath>
</defs>
</svg>
